<svg width="17" height="17" viewBox="0 0 17 17" fill="none" xmlns="http://www.w3.org/2000/svg">
<path id="Vector" d="M2.33522 0.985352C2.03813 0.985352 1.74772 1.09363 1.5007 1.29648C1.25369 1.49934 1.06116 1.78767 0.94747 2.12501C0.833781 2.46235 0.804034 2.83355 0.861993 3.19167C0.919951 3.54979 1.06301 3.87874 1.27308 4.13693C1.48315 4.39512 1.7508 4.57095 2.04217 4.64219C2.33355 4.71342 2.63557 4.67686 2.91004 4.53713C3.18451 4.3974 3.4191 4.16077 3.58416 3.85717C3.74921 3.55358 3.8373 3.19664 3.8373 2.83151C3.8373 2.34187 3.67905 1.8723 3.39735 1.52608C3.11566 1.17986 2.73359 0.985352 2.33522 0.985352ZM2.33522 7.1392C2.03813 7.1392 1.74772 7.24747 1.5007 7.45033C1.25369 7.65319 1.06116 7.94152 0.94747 8.27886C0.833781 8.6162 0.804034 8.9874 0.861993 9.34552C0.919951 9.70364 1.06301 10.0326 1.27308 10.2908C1.48315 10.549 1.7508 10.7248 2.04217 10.796C2.33355 10.8673 2.63557 10.8307 2.91004 10.691C3.18451 10.5512 3.4191 10.3146 3.58416 10.011C3.74921 9.70742 3.8373 9.35049 3.8373 8.98535C3.8373 8.49572 3.67905 8.02614 3.39735 7.67992C3.11566 7.3337 2.73359 7.1392 2.33522 7.1392ZM2.33522 13.293C2.03813 13.293 1.74772 13.4013 1.5007 13.6042C1.25369 13.807 1.06116 14.0954 0.94747 14.4327C0.833781 14.77 0.804034 15.1412 0.861993 15.4994C0.919951 15.8575 1.06301 16.1864 1.27308 16.4446C1.48315 16.7028 1.7508 16.8786 2.04217 16.9499C2.33355 17.0211 2.63557 16.9846 2.91004 16.8448C3.18451 16.7051 3.4191 16.4685 3.58416 16.1649C3.74921 15.8613 3.8373 15.5043 3.8373 15.1392C3.8373 14.6496 3.67905 14.18 3.39735 13.8338C3.11566 13.4875 2.73359 13.293 2.33522 13.293ZM16.3547 13.9084H6.34078C6.20799 13.9084 6.08063 13.9733 5.98673 14.0887C5.89284 14.2041 5.84008 14.3606 5.84008 14.5238V15.7546C5.84008 15.9178 5.89284 16.0743 5.98673 16.1897C6.08063 16.3051 6.20799 16.37 6.34078 16.37H16.3547C16.4875 16.37 16.6148 16.3051 16.7087 16.1897C16.8026 16.0743 16.8554 15.9178 16.8554 15.7546V14.5238C16.8554 14.3606 16.8026 14.2041 16.7087 14.0887C16.6148 13.9733 16.4875 13.9084 16.3547 13.9084ZM16.3547 1.60074H6.34078C6.20799 1.60074 6.08063 1.66557 5.98673 1.78098C5.89284 1.89639 5.84008 2.05291 5.84008 2.21612V3.44689C5.84008 3.6101 5.89284 3.76663 5.98673 3.88203C6.08063 3.99744 6.20799 4.06227 6.34078 4.06227H16.3547C16.4875 4.06227 16.6148 3.99744 16.7087 3.88203C16.8026 3.76663 16.8554 3.6101 16.8554 3.44689V2.21612C16.8554 2.05291 16.8026 1.89639 16.7087 1.78098C16.6148 1.66557 16.4875 1.60074 16.3547 1.60074ZM16.3547 7.75458H6.34078C6.20799 7.75458 6.08063 7.81942 5.98673 7.93482C5.89284 8.05023 5.84008 8.20676 5.84008 8.36997V9.60074C5.84008 9.76395 5.89284 9.92047 5.98673 10.0359C6.08063 10.1513 6.20799 10.2161 6.34078 10.2161H16.3547C16.4875 10.2161 16.6148 10.1513 16.7087 10.0359C16.8026 9.92047 16.8554 9.76395 16.8554 9.60074V8.36997C16.8554 8.20676 16.8026 8.05023 16.7087 7.93482C16.6148 7.81942 16.4875 7.75458 16.3547 7.75458Z" fill="#7E7E7E"/>
</svg>
