<svg width="19" height="19" viewBox="0 0 19 19" fill="none" xmlns="http://www.w3.org/2000/svg">
<path id="Vector" d="M17.951 4.3834L16.0517 0.741211C15.882 0.414258 15.5805 0.213867 15.2586 0.213867H3.43561C3.11369 0.213867 2.81227 0.414258 2.64253 0.741211L0.743236 4.3834C-0.237138 6.26426 0.632029 8.87988 2.46401 9.17871C2.5957 9.1998 2.73032 9.21035 2.86494 9.21035C3.73118 9.21035 4.49792 8.75332 5.02469 8.04668C5.55146 8.75332 6.32113 9.21035 7.18444 9.21035C8.05068 9.21035 8.81742 8.75332 9.34419 8.04668C9.87096 8.75332 10.6406 9.21035 11.5039 9.21035C12.3702 9.21035 13.1369 8.75332 13.6637 8.04668C14.1934 8.75332 14.9601 9.21035 15.8234 9.21035C15.961 9.21035 16.0927 9.1998 16.2244 9.17871C18.0622 8.8834 18.9343 6.26777 17.951 4.3834ZM15.8293 10.3389C15.5366 10.3389 15.2469 10.2861 14.966 10.2053V13.7139H3.72826V10.2053C3.44731 10.2826 3.15759 10.3389 2.86494 10.3389C2.68935 10.3389 2.51084 10.3248 2.33817 10.2967C2.17429 10.2686 2.01333 10.2229 1.85823 10.1701V17.0889C1.85823 17.7111 2.27672 18.2139 2.79471 18.2139H15.9054C16.4234 18.2139 16.8419 17.7111 16.8419 17.0889V10.1701C16.6838 10.2264 16.5258 10.2721 16.3619 10.2967C16.1834 10.3248 16.0078 10.3389 15.8293 10.3389Z" fill="#9356DC"/>
</svg>
