<svg width="14" height="21" viewBox="0 0 14 21" fill="none" xmlns="http://www.w3.org/2000/svg">
<path id="Vector" d="M11.3965 0.129883H2.27071C1.1911 0.129883 0.315186 0.969727 0.315186 2.00488V18.2549C0.315186 19.29 1.1911 20.1299 2.27071 20.1299H11.3965C12.4761 20.1299 13.352 19.29 13.352 18.2549V2.00488C13.352 0.969727 12.4761 0.129883 11.3965 0.129883ZM6.83361 18.8799C6.11251 18.8799 5.52992 18.3213 5.52992 17.6299C5.52992 16.9385 6.11251 16.3799 6.83361 16.3799C7.55471 16.3799 8.13729 16.9385 8.13729 17.6299C8.13729 18.3213 7.55471 18.8799 6.83361 18.8799ZM11.3965 14.6611C11.3965 14.9189 11.1765 15.1299 10.9076 15.1299H2.75959C2.49071 15.1299 2.27071 14.9189 2.27071 14.6611V2.47363C2.27071 2.21582 2.49071 2.00488 2.75959 2.00488H10.9076C11.1765 2.00488 11.3965 2.21582 11.3965 2.47363V14.6611Z" fill="#7E7E7E"/>
</svg>
